<mxfile host="app.diagrams.net" modified="2024-04-20T12:57:08.648Z" agent="Mozilla/5.0 (Windows NT 10.0; Win64; x64) AppleWebKit/537.36 (KHTML, like Gecko) Chrome/123.0.0.0 Safari/537.36" version="24.2.7" etag="VbeAsow6eKypcfs2G5HY" type="github">
  <diagram name="第 1 页" id="TCaIAgEhX5ASA8Z5ehhC">
    <mxGraphModel>
      <root>
        <mxCell id="0" />
        <mxCell id="1" parent="0" />
      </root>
    </mxGraphModel>
  </diagram>
</mxfile>
